<svg width="120" height="120" viewBox="0 0 120 120" fill="none" xmlns="http://www.w3.org/2000/svg">
  <defs>
    <linearGradient id="grad1" x1="0%" y1="0%" x2="100%" y2="100%">
      <stop offset="0%" style="stop-color:#8B5CF6;stop-opacity:1" />
      <stop offset="50%" style="stop-color:#7C3AED;stop-opacity:1" />
      <stop offset="100%" style="stop-color:#A855F7;stop-opacity:1" />
    </linearGradient>
    <linearGradient id="grad2" x1="0%" y1="0%" x2="100%" y2="100%">
      <stop offset="0%" style="stop-color:#A855F7;stop-opacity:1" />
      <stop offset="100%" style="stop-color:#7C3AED;stop-opacity:1" />
    </linearGradient>
  </defs>
  <rect width="120" height="120" rx="24" fill="url(#grad1)"/>
  <rect x="8" y="8" width="104" height="104" rx="20" fill="#0a0a0f" fill-opacity="0.3"/>
  <path d="M60 30C60 30 45 35 40 50C35 65 45 80 60 85C75 80 85 65 80 50C75 35 60 30 60 30Z" fill="url(#grad2)" fill-opacity="0.3"/>
  <g transform="translate(35, 35)">
    <rect x="5" y="0" width="40" height="8" rx="2" fill="white"/>
    <rect x="0" y="12" width="50" height="8" rx="2" fill="white" fill-opacity="0.9"/>
    <rect x="5" y="24" width="40" height="8" rx="2" fill="white" fill-opacity="0.8"/>
    <circle cx="8" cy="42" r="6" fill="white"/>
    <circle cx="25" cy="42" r="6" fill="white" fill-opacity="0.9"/>
    <circle cx="42" cy="42" r="6" fill="white" fill-opacity="0.8"/>
  </g>
  <circle cx="95" cy="95" r="18" fill="url(#grad2)"/>
  <text x="95" y="100" font-family="Arial" font-size="12" font-weight="bold" fill="white" text-anchor="middle">POL</text>
</svg>
